<svg xmlns="http://www.w3.org/2000/svg" viewBox="0 0 826 826"><defs><style>.cls-1{isolation:isolate;}.cls-2{fill:#ffbe9d;}.cls-3{fill:#eb996e;}.cls-4{fill:#1a2e35;}.cls-5{fill:#375a64;}.cls-6,.cls-7{fill:#ffe300;}.cls-7{stroke:#fff;stroke-miterlimit:10;stroke-width:0.02px;}.cls-8{opacity:0.3;}.cls-9{fill:#736100;}.cls-10{fill:#fafafa;}.cls-11{opacity:0.2;mix-blend-mode:multiply;}.cls-12{fill:#000a49;}.cls-13{fill:#2b459c;}.cls-14{fill:#fff;}.cls-15{fill:#e9e9e9;}.cls-16{fill:#fd0044;}.cls-17{fill:none;}</style></defs><title>HIW1</title><g class="cls-1"><g id="Layer_5" data-name="Layer 5"><path class="cls-2" d="M1315,580.38s24.58-15,30.12-10.56c8,6.34,10.66,17,10.66,17s13-49.52,25.37-47.64c7.11,1.08,3.62,6.61.43,13.57-3,6.45-8,30.14-8,30.14s23.49-27.87,30.4-27.37c5.34.39,6.11,5.09-1.57,12.63s-20.45,31.26-20.45,31.26,16.46-15.34,23.26-15.42c5.42-.07,8.92,3.7,1.9,9.79s-17.63,10.66-23.3,21.68c-7,13.59-21.87,47.45-21.87,47.45l-52.1-18.45s-8.48-34.56-8.82-43c0,0,.71-17.75.61-20.91s8.28-4,10.83,2.1,1.39,12.43,2.42,16.46,2.87,7.78,5.82,9.58,10.45,1.93,12.37-.3,4.24-8.72,4.75-12.72a58.18,58.18,0,0,0-.15-10.3S1316,594.25,1315,580.38Z" transform="translate(-631.2 -127)"/><path class="cls-2" d="M729.51,741.66,693.3,728.1s-36.86-21.59-43.69-13.92c0,0-7.29-3.47-10.53,4.3-1.87,4.51,4.32,11,4.32,11s-1.93,2,1.13,8.57,38,27.48,38,27.48,45.49,24.8,63.88,36.67l31.74-43.17-4.41-1.65s-2.62-21.51-11.43-27.24c-9.58-6.25-21.14-23.14-23.68-29.75s-14.76-3.56-12.72,10.18,12.72,17.3,11.7,26.46S729.51,741.66,729.51,741.66Z" transform="translate(-631.2 -127)"/><path class="cls-3" d="M674,746.68c-.14.25-7.19-3.43-15.75-8.22s-15.38-8.9-15.24-9.15,7.2,3.43,15.76,8.22S674.15,746.42,674,746.68Z" transform="translate(-631.2 -127)"/><path class="cls-3" d="M691.67,736.5c-.06.13-2.53-.87-6.49-2.59s-9.39-4.19-15.27-7.19a167.82,167.82,0,0,1-14.66-8.38c-1.81-1.2-3.25-2.19-4.2-2.93a6.67,6.67,0,0,1-1.44-1.23c.1-.14,2.33,1.33,6,3.52s8.9,5.08,14.75,8.08,11.22,5.56,15.1,7.46S691.74,736.37,691.67,736.5Z" transform="translate(-631.2 -127)"/><path class="cls-3" d="M699.29,756.44a21.43,21.43,0,0,1-3.21-1.74l-8.53-5.09-.1-.06-.05-.11a119.66,119.66,0,0,0-6.15-11.77,28.28,28.28,0,0,0-4.6-6.09,5.8,5.8,0,0,0-7.13-.53,3.59,3.59,0,0,0-1.14,1,.67.67,0,0,1,.08.25l.15.45c.09.29.2.6.31.9.44,1.21.92,2.4,1.39,3.57,1,2.33,1.88,4.59,2.77,6.76l4.9,11.68-.07-.11c3,3.49,5.43,6.37,7.28,8.53l1.94,2.37a3.64,3.64,0,0,1,.62.89,4.27,4.27,0,0,1-.79-.73l-2.11-2.23-7.54-8.3,0,0,0-.06c-1.51-3.38-3.23-7.3-5.07-11.62-.91-2.17-1.85-4.43-2.83-6.76-.47-1.17-1-2.36-1.4-3.59-.12-.31-.23-.61-.33-.94l-.16-.49a3,3,0,0,1-.11-.72,2.34,2.34,0,0,1,.74-1.08,6.79,6.79,0,0,1,.87-.65,6.82,6.82,0,0,1,8.37.63,28.94,28.94,0,0,1,4.77,6.37,107,107,0,0,1,6,12L688,749l8.36,5.38A23.23,23.23,0,0,1,699.29,756.44Z" transform="translate(-631.2 -127)"/><path class="cls-3" d="M735.59,756.79c-.05.15-1.74-.32-4.45-1.09a44.64,44.64,0,0,0-10.7-1.89,19.63,19.63,0,0,0-10.32,2.53c-2.38,1.42-3.43,2.87-3.57,2.74s.77-1.7,3.17-3.37a18.5,18.5,0,0,1,10.74-3A36,36,0,0,1,731.37,755C734,755.94,735.64,756.66,735.59,756.79Z" transform="translate(-631.2 -127)"/><path class="cls-3" d="M732.87,747.23c.24.18-.66,1.75-1.53,3.76s-1.44,3.73-1.73,3.67-.18-2,.76-4.1S732.65,747.05,732.87,747.23Z" transform="translate(-631.2 -127)"/><path class="cls-4" d="M941.55,575.1c2.5-17.06,22.37-41.53,40-41.55a45.42,45.42,0,0,1-.38-49.92c6.79-10.16,17.73-17.62,22.37-28.88,5.25-12.73,1.22-27.12,1.72-40.84.74-20.1,11.19-38.45,21.37-55.9,9.32-16,20.69-33.5,39-37.42,11.61-2.49,23.64,1.18,34.54,5.82,52.15,22.21,92.7,69,106.62,123.06,3.33,12.94,5.56,26.94,14.58,36.93,9.54,10.59,26.27,16.34,29.13,30.19,2.06,9.93-4.32,19.92-3.36,30,.8,8.45,16.63,33.09,20.28,40.79,6.29,13.27,4,27.6-2.39,40.81s-22.69,26.08-37.16,29.67L1066.23,604c-15.21,8.66-30.36,42.15-47.81,44.21s-38.76,9.65-55.56-8.73C945.26,620.23,939.05,592.17,941.55,575.1Z" transform="translate(-631.2 -127)"/><path class="cls-4" d="M1209.56,414.34c-1.81,13.52,1.9,35.89,9.29,47.44,5,7.76,13.25,12.8,21.41,17.24s16.73,8.69,22.92,15.55,9.51,17.12,5.38,25.33c14.56,5.43,21.09,24,15.75,38.32s-20,24-35.3,26.87L1182.35,565,1167.71,480l38.48-65.62" transform="translate(-631.2 -127)"/><path class="cls-5" d="M1217.74,501.07a7.45,7.45,0,0,1,1.31.56,38.73,38.73,0,0,1,3.64,1.9,48.16,48.16,0,0,1,11.68,9.74,53.7,53.7,0,0,1,6.23,8.64,54.32,54.32,0,0,1,4.85,11.35,48.94,48.94,0,0,1,.18,28.39l-.24-.61a49.32,49.32,0,0,1,10.85,8.24A50.55,50.55,0,0,1,1270.78,599a48.69,48.69,0,0,1-4.78,26.68,50.08,50.08,0,0,1-11,14.73,41.37,41.37,0,0,1-3.88,3.16,9.81,9.81,0,0,1-1.45,1,10.93,10.93,0,0,1,1.33-1.13c.9-.69,2.16-1.81,3.72-3.29a51.85,51.85,0,0,0,10.56-14.76,48.45,48.45,0,0,0,4.48-26.24A49.88,49.88,0,0,0,1255.49,570a48.92,48.92,0,0,0-10.61-8.07l-.36-.21.12-.4a48.42,48.42,0,0,0-.07-27.82,52.41,52.41,0,0,0-10.72-19.8,50.25,50.25,0,0,0-11.36-9.88c-1.46-1-2.74-1.54-3.53-2A9,9,0,0,1,1217.74,501.07Z" transform="translate(-631.2 -127)"/><path class="cls-6" d="M1020.53,589.17s-29.79,9.06-40.23,24.24c-7.39,10.75-83,174.54-83,174.54L782.47,753.43l-41,54.21,127.74,70.81a77.82,77.82,0,0,0,76.05-.34h0a77.81,77.81,0,0,0,30.67-31.72l32.48-62.23Z" transform="translate(-631.2 -127)"/><path class="cls-6" d="M990.05,945.9,1008,868.63l-13.59-56.1c-8.74-28.89-16.23-75.95-6.73-113.85l31.75-109,34.91-16,79.89-13.74c3.07,1,83.53,23.75,83.53,23.75,11.14,2.58,15.61,4.36,15.61,4.36l9.23,59.66L1214.84,746l-12.08,98L1229.3,945.9Z" transform="translate(-631.2 -127)"/><path class="cls-7" d="M984.11,705.51" transform="translate(-631.2 -127)"/><path class="cls-7" d="M1171.29,712.72" transform="translate(-631.2 -127)"/><path class="cls-2" d="M1036.22,582l23.16-10.36L1163.79,573l24.7,14.33s-86.26,95.21-107.91,98.36C1026.13,693.64,1036.22,582,1036.22,582Z" transform="translate(-631.2 -127)"/><path class="cls-6" d="M1231.09,587.17s15.64,3.52,29,32.12,35.08,108.2,35.08,108.2l9.27-84.35,75.48,8.3L1365.35,853s-26.71,38.74-71.4,35.16-101.41-144.83-101.41-144.83Z" transform="translate(-631.2 -127)"/><path class="cls-4" d="M1283.43,830.49a1.86,1.86,0,0,1,0-.49c0-.38,0-.85.06-1.43.09-1.34.2-3.17.33-5.48.29-4.77.86-11.65,1.65-20.15,1.57-17,4.45-40.4,8-66.19s6.52-49.18,8.28-66.14c.89-8.48,1.57-15.35,2-20.1q.33-3.46.53-5.47c.07-.57.12-1,.16-1.42a1.71,1.71,0,0,1,.1-.48,2.24,2.24,0,0,1,0,.49c0,.38,0,.85-.06,1.42q-.12,2-.33,5.49c-.29,4.76-.85,11.65-1.64,20.14-1.58,17-4.46,40.41-8,66.21s-6.52,49.16-8.28,66.13c-.88,8.48-1.56,15.35-2,20.1q-.33,3.46-.52,5.47c-.07.57-.12,1-.17,1.42A1.55,1.55,0,0,1,1283.43,830.49Z" transform="translate(-631.2 -127)"/><path class="cls-4" d="M898.59,831.45a5.44,5.44,0,0,1-.84-1.51,45.59,45.59,0,0,1-1.75-4.35A65,65,0,0,1,893,795a42.47,42.47,0,0,1,.89-4.6,5.13,5.13,0,0,1,.53-1.64c.17,0-.29,2.43-.68,6.33a77,77,0,0,0,2.93,30.24C897.84,829.12,898.75,831.38,898.59,831.45Z" transform="translate(-631.2 -127)"/><path class="cls-4" d="M911.29,833.32a7.76,7.76,0,0,1-1.34-1.51c-.81-1-1.89-2.53-3.15-4.47A77.75,77.75,0,0,1,895,793.5a53.63,53.63,0,0,1-.31-5.46,7.4,7.4,0,0,1,.11-2c.18,0,.31,2.84.94,7.38A90.29,90.29,0,0,0,907.44,827C909.76,830.9,911.43,833.21,911.29,833.32Z" transform="translate(-631.2 -127)"/><path class="cls-4" d="M1000.65,653.2a8.54,8.54,0,0,1-.38,1.64L999,659.47c-1.16,4.11-2.8,9.89-4.81,17-3.92,14.36-9.38,34.31-12,56.9a132.58,132.58,0,0,0,4.88,57.44c2.13,7.13,4.15,12.82,5.54,16.75q1,2.85,1.59,4.53a8.43,8.43,0,0,1,.49,1.61,11.24,11.24,0,0,1-.69-1.53q-.66-1.67-1.78-4.47c-1.5-3.89-3.63-9.54-5.87-16.68a136.74,136.74,0,0,1-5.57-25.64,138.89,138.89,0,0,1,.36-32.13c2.63-22.7,8.22-42.66,12.33-57,2.09-7.17,3.88-12.93,5.14-16.91.62-1.91,1.11-3.44,1.48-4.57A11,11,0,0,1,1000.65,653.2Z" transform="translate(-631.2 -127)"/><path class="cls-4" d="M1211.75,786a1.9,1.9,0,0,1-.27-.5l-.71-1.49c-.63-1.4-1.51-3.34-2.63-5.8s-2.54-5.6-4.07-9.23l-5-12.4c-1.78-4.61-3.5-9.75-5.46-15.23-.86-2.78-1.75-5.66-2.67-8.62l-1.38-4.51c-.44-1.53-.82-3.1-1.23-4.69a206.08,206.08,0,0,1-7.14-41.94c-.93-15.1.51-29.69,4.36-42.26a75,75,0,0,1,16.72-30.3,58.3,58.3,0,0,1,18.85-13.82,43.63,43.63,0,0,1,6-2.22l1.59-.45a2.15,2.15,0,0,1,.56-.11,3.61,3.61,0,0,1-.53.22l-1.56.54a53.5,53.5,0,0,0-5.87,2.39,59.62,59.62,0,0,0-18.47,13.95,75.06,75.06,0,0,0-16.34,30.07c-3.76,12.48-5.16,26.93-4.24,41.93a208.78,208.78,0,0,0,7,41.76c.4,1.57.81,3.13,1.2,4.67s.91,3,1.36,4.51c.9,3,1.77,5.83,2.61,8.61,1.92,5.47,3.59,10.62,5.33,15.24s3.38,8.77,4.8,12.44,2.84,6.73,3.9,9.28,1.85,4.46,2.44,5.88c.25.63.45,1.14.62,1.54A2,2,0,0,1,1211.75,786Z" transform="translate(-631.2 -127)"/><g class="cls-8"><path class="cls-9" d="M1183,694.72c-9.87,46.68-10,94.71,7,139.3,1,2.58,4.89,11.78,7.65,11.92,3.51.17,5.17-4.19,5.78-7.65,1.24-7.11,2-18.8,3.25-25.91,1.57-8.9,3.68-29.5,3.68-29.5s-8.16-18.68-11.75-28.69c-6.66-18.59-12.29-36.33-15.4-58" transform="translate(-631.2 -127)"/></g><path class="cls-4" d="M1174.92,875.58a7.51,7.51,0,0,1-.78,1.22l-2.43,3.38-1.77,2.43c-.68.86-1.49,1.74-2.32,2.72a81.66,81.66,0,0,1-5.91,6.42l-3.63,3.56c-1.27,1.22-2.74,2.34-4.18,3.58a119,119,0,0,1-9.67,7.35,124.44,124.44,0,0,1-51.5,20.07,120.83,120.83,0,0,1-12.09,1.14c-1.9.06-3.74.22-5.5.18l-5.08-.16a79.8,79.8,0,0,1-8.69-.73c-1.28-.15-2.47-.26-3.56-.43l-3-.59-4.07-.85a6.22,6.22,0,0,1-1.4-.37,8.06,8.06,0,0,1,1.44.16l4.1.65,3,.5c1.08.15,2.27.22,3.54.35,2.55.19,5.44.62,8.66.57l5,.09c1.75,0,3.58-.17,5.46-.25a120.09,120.09,0,0,0,12-1.23,126.7,126.7,0,0,0,51.09-19.91c3.46-2.46,6.82-4.71,9.67-7.21,1.44-1.22,2.9-2.31,4.18-3.51s2.49-2.37,3.65-3.49a83.91,83.91,0,0,0,6-6.27c.85-1,1.68-1.82,2.38-2.66l1.84-2.36,2.57-3.25A7.74,7.74,0,0,1,1174.92,875.58Z" transform="translate(-631.2 -127)"/><path class="cls-4" d="M1158.45,844.69a9.29,9.29,0,0,1-.27,2.21,51.7,51.7,0,0,1-1.42,5.9,70.25,70.25,0,0,1-21.55,33.26,50.56,50.56,0,0,1-4.81,3.71,8.92,8.92,0,0,1-1.91,1.15c-.11-.16,2.48-2,6.23-5.41a78,78,0,0,0,21.33-32.93C1157.65,847.76,1158.26,844.65,1158.45,844.69Z" transform="translate(-631.2 -127)"/><path class="cls-6" d="M1121.68,307.68c28.26.19,55.91,16.14,70.21,40.52s14.75,56.3,1.13,81.06c-4.64,8.45-11.32,16.44-20.49,19.38,3.12-48.43-16.18-97.86-51.31-131.36" transform="translate(-631.2 -127)"/><path class="cls-6" d="M1154.76,315c-4.2-8.72.29-19.64,7.77-25.79s17.24-8.62,26.66-10.87,19.17-4.59,26.82-10.52c-1.1,15.17-4.87,30.78-14.69,42.4s-26.83,18.08-40.85,12.18" transform="translate(-631.2 -127)"/><path class="cls-6" d="M1164.48,325c-6.44,2.71-14.13,1-19.89-2.94s-9.9-9.87-13.28-16c-4.16-7.52-7.43-15.64-8.54-24.15s.06-17.48,4.27-25c11.09,11.81,23.3,21.74,29.64,36.65,3.73,8.76,3.27,22.8-.72,31.44" transform="translate(-631.2 -127)"/><path class="cls-4" d="M1195.89,374.1a15.53,15.53,0,0,1,.55,2.82c.15.91.31,2,.41,3.34s.3,2.8.33,4.45a89.43,89.43,0,0,1-.2,11.62,94.34,94.34,0,0,1-6.57,27.61,90.72,90.72,0,0,1-5.05,10.47c-.78,1.46-1.61,2.71-2.3,3.82s-1.33,2-1.88,2.8a14.61,14.61,0,0,1-1.76,2.27,14.72,14.72,0,0,1,1.42-2.5c.5-.77,1.09-1.73,1.72-2.87s1.42-2.4,2.14-3.88a101.12,101.12,0,0,0,4.8-10.46,100.21,100.21,0,0,0,6.51-27.35,104.66,104.66,0,0,0,.43-11.51c0-1.64-.12-3.12-.17-4.42s-.15-2.43-.24-3.34A14.11,14.11,0,0,1,1195.89,374.1Z" transform="translate(-631.2 -127)"/><path class="cls-4" d="M1189.56,319.78a13.53,13.53,0,0,1-2.24,1.79,24.68,24.68,0,0,1-7.32,2.83c-6.51,1.48-15.93,1.17-25.86-1.48l-.3-.07-.06-.31c-.14-.6-.28-1.25-.43-1.91a45.4,45.4,0,0,1-.67-15.07,25.75,25.75,0,0,1,4.25-11.55,21.59,21.59,0,0,1,6-5.74,17.09,17.09,0,0,1,2.73-1.35,15.88,15.88,0,0,1-2.5,1.69,22.89,22.89,0,0,0-5.62,5.82,25.63,25.63,0,0,0-3.91,11.26,46.26,46.26,0,0,0,.74,14.73c.15.64.29,1.28.42,1.87l-.36-.38c9.74,2.62,19,3,25.41,1.78a26.91,26.91,0,0,0,7.27-2.47A16.46,16.46,0,0,1,1189.56,319.78Z" transform="translate(-631.2 -127)"/><path class="cls-4" d="M1197.86,293.53c0,.2-3,.62-7.61,2a65.76,65.76,0,0,0-8,3A64.53,64.53,0,0,0,1165,309.81a67.41,67.41,0,0,0-5.88,6.12c-3.11,3.71-4.69,6.29-4.86,6.18a8.47,8.47,0,0,1,1-1.88,42.67,42.67,0,0,1,3.29-4.77,57.79,57.79,0,0,1,5.8-6.36,59.72,59.72,0,0,1,17.58-11.52,57.51,57.51,0,0,1,8.14-2.78,45,45,0,0,1,5.69-1.12A8.67,8.67,0,0,1,1197.86,293.53Z" transform="translate(-631.2 -127)"/><path class="cls-4" d="M1164.05,324.74s0,.22-.08.61a9.1,9.1,0,0,1-.54,1.68,13.12,13.12,0,0,1-4,5.06,13.89,13.89,0,0,1-9.1,2.94,13.71,13.71,0,0,1-11.91-17.38,13.91,13.91,0,0,1,6-7.43,13.19,13.19,0,0,1,6.17-1.91,9.14,9.14,0,0,1,1.76.1c.4.06.6.11.6.14s-.85,0-2.32.17a13.72,13.72,0,0,0-5.81,2.13,13.44,13.44,0,0,0-5.5,7.09,12.9,12.9,0,0,0,11.05,16.12,13.46,13.46,0,0,0,8.6-2.57,13.8,13.8,0,0,0,4.08-4.64C1163.75,325.53,1163.94,324.71,1164.05,324.74Z" transform="translate(-631.2 -127)"/><path class="cls-4" d="M1139.49,325.25c-.09.1-.7-1.1.26-2.68a4.59,4.59,0,0,1,2.4-1.88,8.87,8.87,0,0,1,3.62-.38c5.06.36,8.73,2.33,8.6,2.56s-3.84-1.17-8.67-1.5c-2.39-.25-4.46.38-5.34,1.63S1139.66,325.24,1139.49,325.25Z" transform="translate(-631.2 -127)"/><path class="cls-4" d="M1127,256.94c.2.09-2.23,3-3.09,8.67a60.41,60.41,0,0,0-.48,10.05,66,66,0,0,0,1.08,12.26,60.75,60.75,0,0,0,8.65,20.51c1.65,2.35,3.1,4.18,4.12,5.42s1.67,1.85,1.62,1.91-2.88-2.23-6.34-6.9a57,57,0,0,1-9.08-20.73,62,62,0,0,1-1-12.47,54.5,54.5,0,0,1,.72-10.18,20.44,20.44,0,0,1,2.31-6.51A7.58,7.58,0,0,1,1127,256.94Z" transform="translate(-631.2 -127)"/><path class="cls-4" d="M1137.54,281c.11-.08,1.25,1.2,2.85,3.46a60.22,60.22,0,0,1,5.38,9.39,56.49,56.49,0,0,1,3.56,10.22c.64,2.7.82,4.4.69,4.43-.33.08-1.7-6.63-5.21-14.21S1137.25,281.17,1137.54,281Z" transform="translate(-631.2 -127)"/><path class="cls-4" d="M1134.11,293.59c.22-.18,3.63,3.27,8.1,7.28s8,7.37,7.81,7.6-4-2.78-8.52-6.82S1133.88,293.78,1134.11,293.59Z" transform="translate(-631.2 -127)"/><path class="cls-10" d="M1187.12,341.11s-.09.11-.29.29l-.89.75a37.91,37.91,0,0,1-3.46,2.57,51.85,51.85,0,0,1-26.71,8.77,40,40,0,0,1-4.31,0l-1.16-.09a1.91,1.91,0,0,1-.41-.05s.14,0,.41,0h1.17c1,0,2.48,0,4.29-.11a55.06,55.06,0,0,0,26.56-8.73c1.52-1,2.72-1.82,3.52-2.45l.94-.69A1.24,1.24,0,0,1,1187.12,341.11Z" transform="translate(-631.2 -127)"/><path class="cls-10" d="M1199.05,365.62s-.09.11-.29.29-.59.48-.9.75c-.78.65-2,1.53-3.48,2.55a58.11,58.11,0,0,1-26.54,9.57c-1.81.17-3.28.25-4.3.25h-1.17c-.27,0-.41,0-.41,0a1.91,1.91,0,0,1,.41-.05l1.16-.08c1,0,2.48-.16,4.28-.38a62.17,62.17,0,0,0,26.41-9.52c1.52-1,2.73-1.82,3.54-2.43l.94-.69A1.86,1.86,0,0,1,1199.05,365.62Z" transform="translate(-631.2 -127)"/><path class="cls-10" d="M1195.74,401.37a4.66,4.66,0,0,1-.86.64,28.85,28.85,0,0,1-2.49,1.49,39.82,39.82,0,0,1-18.4,4.81,26.46,26.46,0,0,1-2.91-.08,5.18,5.18,0,0,1-1-.13,4.89,4.89,0,0,1,1.06,0c.68,0,1.67,0,2.89-.05a44.53,44.53,0,0,0,18.27-4.78c1.09-.55,2-1,2.55-1.37A5.86,5.86,0,0,1,1195.74,401.37Z" transform="translate(-631.2 -127)"/><path class="cls-10" d="M1202.61,395.91a10,10,0,0,1-2.73.74,9.51,9.51,0,0,1-2.82.32,10.05,10.05,0,0,1,2.74-.74A9.44,9.44,0,0,1,1202.61,395.91Z" transform="translate(-631.2 -127)"/><path class="cls-10" d="M1182.51,437.94a13.7,13.7,0,0,1-4.62.24,13.87,13.87,0,0,1-4.54-.91c0-.12,2.05.31,4.57.49S1182.5,437.82,1182.51,437.94Z" transform="translate(-631.2 -127)"/><path class="cls-10" d="M1144.08,332a13.16,13.16,0,0,1-2.7,1.73,12.52,12.52,0,0,1-2.91,1.36,12.07,12.07,0,0,1,2.7-1.73A12.52,12.52,0,0,1,1144.08,332Z" transform="translate(-631.2 -127)"/><path class="cls-10" d="M1134,310.77a27.38,27.38,0,0,0-11,7.79,6.9,6.9,0,0,1,1.16-1.64,19.83,19.83,0,0,1,3.59-3.29,20.5,20.5,0,0,1,4.28-2.31A6.81,6.81,0,0,1,1134,310.77Z" transform="translate(-631.2 -127)"/><path class="cls-10" d="M1152.26,334.31a21,21,0,0,0-1.56-12.05,5.37,5.37,0,0,1,.91,1.6,16,16,0,0,1,1.18,4.26,15.49,15.49,0,0,1-.06,4.42A5.3,5.3,0,0,1,1152.26,334.31Z" transform="translate(-631.2 -127)"/><path class="cls-10" d="M1214.93,268.26a25.23,25.23,0,0,1-2.22,2.36,45.42,45.42,0,0,1-7,5.39,87.76,87.76,0,0,1-11.65,6c-4.51,2-9.57,4-14.69,6.43a57.49,57.49,0,0,0-13.43,8.57,34,34,0,0,0-7.89,10.27,24.64,24.64,0,0,0-2.4,8.4c-.18,2.08,0,3.23-.1,3.23s0-.28-.07-.83a17.2,17.2,0,0,1,0-2.41,24.14,24.14,0,0,1,2.3-8.52,33.68,33.68,0,0,1,7.9-10.43,57.19,57.19,0,0,1,13.51-8.66c5.14-2.46,10.2-4.43,14.71-6.4a93.41,93.41,0,0,0,11.65-5.92,48.18,48.18,0,0,0,7-5.26c.76-.71,1.35-1.27,1.72-1.66S1214.93,268.26,1214.93,268.26Z" transform="translate(-631.2 -127)"/><path class="cls-10" d="M1209.45,292.29a1.84,1.84,0,0,1-.27.46c-.25.39-.53.81-.84,1.27-.73,1.11-1.87,2.66-3.35,4.51a80.09,80.09,0,0,1-29,22.52c-2.16,1-3.94,1.7-5.19,2.13l-1.44.5a3.24,3.24,0,0,1-.51.15,1.67,1.67,0,0,1,.48-.23l1.41-.58c1.23-.47,3-1.23,5.12-2.24a84.49,84.49,0,0,0,28.91-22.44c1.51-1.82,2.68-3.33,3.45-4.41l.9-1.22C1209.33,292.43,1209.44,292.29,1209.45,292.29Z" transform="translate(-631.2 -127)"/><path class="cls-10" d="M1124.91,263.83a39.46,39.46,0,0,1,6.14,3.25A50.89,50.89,0,0,1,1151.56,293a39.18,39.18,0,0,1,1.76,6.72,2.29,2.29,0,0,1-.15-.46c-.11-.42-.23-.86-.36-1.34a47.87,47.87,0,0,0-1.53-4.82,52.85,52.85,0,0,0-20.39-25.74,49.92,49.92,0,0,0-4.35-2.59l-1.22-.65C1125.05,263.93,1124.9,263.85,1124.91,263.83Z" transform="translate(-631.2 -127)"/><path class="cls-4" d="M1023.33,340c.79,10.73-6.3,20.32-13.44,28.38s-15.09,16.44-16.63,27.1c-2.74,18.88,15.74,36.41,11.93,55.1-2,10-10.24,18.07-11.71,28.19-1.41,9.78,3.84,19.36,10.34,26.82s14,6.36,19.78,14.4a80.94,80.94,0,0,0,24.95,22.18c20.72,11.34,45.58-5.07,55.57-8" transform="translate(-631.2 -127)"/><path class="cls-4" d="M1180,384c9.54-4.16,10.29-38.38-13.66-42.33-9.61-1.59-17.62-6.28-25.7-11.72-7.15-4.81-9.27-17-15.33-23.17a60,60,0,0,0-100.83,27.5c-3.48,13.87-1.11,30.26,9.82,39.48,12.69,10.69,31.49,8.32,47.75,5s34.65-6.61,48.22,2.94c8.18,5.75,12.88,15.12,17.88,23.78s11.28,17.52,20.74,20.77c0,0,7.2,16.93,1.32,28.72s6.92-8.32,6.92-8.32,23.33-41.48,2.87-62.64" transform="translate(-631.2 -127)"/><path class="cls-2" d="M1058.64,624.17c-.13-22.34,0-85.07,0-85s-35.49-6-42.74-52.31c-3.61-23-2.37-60.81-.35-91.68,1.81-27.79,20.29-61.84,48-58.85l86.41,22.05A16.28,16.28,0,0,1,1164.48,375h0l-5.26,214.6Z" transform="translate(-631.2 -127)"/><path class="cls-4" d="M1030.25,421.69a6,6,0,0,0,5.72,6,5.68,5.68,0,0,0,6.13-5.34,5.94,5.94,0,0,0-5.7-6A5.69,5.69,0,0,0,1030.25,421.69Z" transform="translate(-631.2 -127)"/><path class="cls-4" d="M1023.7,414.89c.73.77,5.24-2.55,11.63-2.52s11.07,3.24,11.77,2.46c.34-.35-.41-1.75-2.45-3.24a16.32,16.32,0,0,0-9.42-2.92,15.67,15.67,0,0,0-9.26,3C1024,413.14,1023.33,414.54,1023.7,414.89Z" transform="translate(-631.2 -127)"/><path class="cls-4" d="M1086.53,425.07c.73.78,5.25-2.54,11.64-2.51s11.07,3.24,11.76,2.46c.34-.35-.4-1.75-2.45-3.24a16.29,16.29,0,0,0-9.41-2.93,15.74,15.74,0,0,0-9.26,3C1086.84,423.33,1086.17,424.72,1086.53,425.07Z" transform="translate(-631.2 -127)"/><path class="cls-4" d="M1063.22,463.57c0-.36-3.94-1.05-10.37-1.89-1.64-.18-3.18-.5-3.45-1.62s.3-2.94,1.1-4.83l4.85-12.42c6.74-17.68,11.63-32.23,10.92-32.49s-6.77,13.85-13.51,31.53l-4.65,12.5c-.62,1.85-1.69,3.95-.86,6.4a4.08,4.08,0,0,0,2.68,2.39,10.68,10.68,0,0,0,2.77.4C1059.18,463.9,1063.2,463.94,1063.22,463.57Z" transform="translate(-631.2 -127)"/><path class="cls-3" d="M1058.64,539.21s31.16,2.08,62.07-16.41c-.52.11-17.08,32.2-61.47,27.35Z" transform="translate(-631.2 -127)"/><path class="cls-3" d="M1065.07,482c-.76-3.94,3.86-5.21,7.27-7.33s5.35-4.92,8.54-2.5a12.5,12.5,0,0,1,3.94,5.52,8.69,8.69,0,0,1,.64,4.52,8.84,8.84,0,0,1-2.85,4.73,13.36,13.36,0,0,1-6.94,3.63,9.64,9.64,0,0,1-7.51-1.76,7.59,7.59,0,0,1-2.87-7" transform="translate(-631.2 -127)"/><path class="cls-4" d="M1082,468c-1-.07-1.07,6.87-7,11.78s-13.34,4.14-13.39,5.11c-.1.43,1.64,1.35,4.76,1.44a17.26,17.26,0,0,0,11.18-3.87,15,15,0,0,0,5.44-9.88C1083.27,469.72,1082.5,468,1082,468Z" transform="translate(-631.2 -127)"/><path class="cls-4" d="M1085.58,410.79c.63,1.74,7,.93,14.51,1.85s13.56,3,14.56,1.42c.44-.74-.61-2.38-3.05-4.07a25.44,25.44,0,0,0-22.15-2.49C1086.7,408.6,1085.31,410,1085.58,410.79Z" transform="translate(-631.2 -127)"/><path class="cls-4" d="M1024.58,392.77c1.13,1.46,5.53,0,10.83-.1,5.29-.24,9.78,1,10.81-.52.46-.73-.25-2.19-2.2-3.57a15.68,15.68,0,0,0-17.44.5C1024.71,390.57,1024.09,392.07,1024.58,392.77Z" transform="translate(-631.2 -127)"/><path class="cls-4" d="M1169.54,513.38c-12.73,2.57-13.87-3.92-23.39-12.76a41.84,41.84,0,0,1-12.8-35.3c1.44-11.37,7.57-22.95,3.63-33.71-5.21-14.24-25.17-18.62-30.47-32.83-3.07-8.25-.31-17.91-3.8-26-3.28-7.61-11.29-12-19.08-14.81s-16.14-4.76-22.69-9.85-10.62-14.68-6.4-21.81a439.11,439.11,0,0,1,101.22,24.59c7.56,2.83,15.5,6.22,20,12.94,4.73,7.11,4.5,16.29,4.1,24.82L1174,513.44" transform="translate(-631.2 -127)"/><path class="cls-5" d="M1199.06,497.83s.2-.17.51-.57a18.34,18.34,0,0,0,1.28-1.86,24.7,24.7,0,0,0,3.05-8.1,28.41,28.41,0,0,0-.75-13.67,26.09,26.09,0,0,0-10.78-14.5c-5.49-3.88-12.65-6.58-17.19-12.74a13.92,13.92,0,0,1-2.52-10.88c.62-4,2.44-7.87,4-12a34.55,34.55,0,0,0-.6-27.66,30.35,30.35,0,0,0-9.39-11.67c-4.15-3.14-9.22-4.76-14.21-5.89s-10-1.81-14.67-3.21-9.06-3.46-12.28-6.72-4.7-7.67-5.33-12.15-1-9.13-2.18-13.47a46.37,46.37,0,0,0-12.5-21.91,36.63,36.63,0,0,0-19.68-9.77,29.19,29.19,0,0,0-17.9,2.72,28.25,28.25,0,0,0-10.36,9,24.15,24.15,0,0,0-3.63,7.86,12.35,12.35,0,0,0-.45,3c.3.13.37-4.34,4.72-10.37a27.87,27.87,0,0,1,27.4-10.72,35.31,35.31,0,0,1,18.73,9.55,45,45,0,0,1,11.86,21.17c1.14,4.2,1.44,8.62,2.07,13.29s2.14,9.67,5.83,13.26,8.3,5.81,13.12,7.26,9.89,2.13,14.8,3.25,9.64,2.66,13.46,5.54a28.39,28.39,0,0,1,8.79,10.89,32.75,32.75,0,0,1,.65,26.15c-1.53,4.07-3.39,8.08-4,12.41a15.67,15.67,0,0,0,2.92,12.14c5,6.65,12.42,9.23,17.75,12.94A25,25,0,0,1,1202.07,474a28.33,28.33,0,0,1,1,13.2C1201.85,494.5,1198.76,497.7,1199.06,497.83Z" transform="translate(-631.2 -127)"/><path class="cls-4" d="M1138.79,451.8a117.2,117.2,0,0,0-5.41,77.26c2.1,7.58,5,15.43,3.2,23.09-1.94,8.29-8.87,14.28-13.92,21.13a52.15,52.15,0,0,0,16,76.21c1.34-7.62,8.43-12.81,15.42-16.12s14.71-5.77,20-11.37,6.84-15.88.64-20.51c17.83-4.66,27.94-25.84,24.19-43.88s-18.43-32.3-35.12-40.12" transform="translate(-631.2 -127)"/><path class="cls-4" d="M1157.81,631.68c-3.19,1.74-6.29,3.31-6.68,6.92-.46,4.24,3.61,11.69,5.07,15.7a21.81,21.81,0,0,1-28.51,27.75c5.71.44,10.55-5.13,11.06-10.83s-2.26-11.2-5.66-15.8-7.52-8.7-10.4-13.64c-5.88-10.06-14.59-37.44-7.88-52.77" transform="translate(-631.2 -127)"/><path class="cls-5" d="M1174,602.2a7.67,7.67,0,0,1,1.09-.93c.75-.57,1.82-1.43,3.18-2.57a71.07,71.07,0,0,0,10.41-10.77,54,54,0,0,0,9.87-19.68,44.3,44.3,0,0,0-1.31-26.6,39.42,39.42,0,0,0-7.32-11.84c-3-3.43-6.23-6.41-9.28-9.32a95.19,95.19,0,0,1-8.31-8.65,37,37,0,0,1-5.45-9c-2.59-5.92-2.7-11.42-1.79-14.88a15.67,15.67,0,0,1,1.52-3.84,8,8,0,0,1,.78-1.21,27,27,0,0,0-1.9,5.14,23.8,23.8,0,0,0,2.07,14.49,37.5,37.5,0,0,0,5.44,8.71,99.69,99.69,0,0,0,8.31,8.5c3.06,2.88,6.34,5.87,9.39,9.34a40.27,40.27,0,0,1,7.53,12.14,44.92,44.92,0,0,1,1.26,27.22,53.84,53.84,0,0,1-10.22,19.9A65.34,65.34,0,0,1,1178.55,599c-1.41,1.09-2.53,1.91-3.31,2.42A7.14,7.14,0,0,1,1174,602.2Z" transform="translate(-631.2 -127)"/><g class="cls-11"><rect class="cls-12" x="645.89" y="149.57" width="231.1" height="101.65" rx="7.67" transform="translate(-648.87 -40.36) rotate(-6.44)"/></g><rect class="cls-13" x="645.89" y="140.93" width="231.1" height="101.65" rx="7.67" transform="translate(-647.9 -40.42) rotate(-6.44)"/><path class="cls-14" d="M694.57,202.83h0a19.09,19.09,0,0,0-16.83,21.11l37.94-4.28A19.08,19.08,0,0,0,694.57,202.83Z" transform="translate(-631.2 -127)"/><path class="cls-14" d="M694.08,198.47a10.86,10.86,0,1,0-12-9.57A10.86,10.86,0,0,0,694.08,198.47Z" transform="translate(-631.2 -127)"/><path class="cls-14" d="M733.68,183a3.87,3.87,0,0,1-.43-7.71l104.28-11.77a3.87,3.87,0,0,1,.86,7.69L734.11,182.92A3.11,3.11,0,0,1,733.68,183Z" transform="translate(-631.2 -127)"/><path class="cls-14" d="M814.6,189.62a3.87,3.87,0,0,1-.43-7.71l25.12-2.83a3.86,3.86,0,0,1,.86,7.68L815,189.6Z" transform="translate(-631.2 -127)"/><path class="cls-14" d="M735.44,198.55a3.87,3.87,0,0,1-.43-7.71l64.32-7.25a3.86,3.86,0,0,1,.86,7.68l-64.32,7.26Z" transform="translate(-631.2 -127)"/><path class="cls-14" d="M737.2,214.16a3.87,3.87,0,0,1-.43-7.71l42.62-4.81a3.86,3.86,0,1,1,.87,7.68l-42.63,4.81A3.11,3.11,0,0,1,737.2,214.16Z" transform="translate(-631.2 -127)"/><g class="cls-11"><path class="cls-12" d="M1438.64,342.62,1345.93,306a19.86,19.86,0,0,0-25.77,11.18l-18.85,47.74h0L1281,416.49l46.47-19.89,77.78,30.71A19.87,19.87,0,0,0,1431,416.13l18.84-47.74A19.86,19.86,0,0,0,1438.64,342.62Z" transform="translate(-631.2 -127)"/></g><path class="cls-15" d="M1438.64,334l-92.71-36.6a19.86,19.86,0,0,0-25.77,11.18l-18.85,47.74h0L1281,407.85,1327.43,388l77.78,30.71A19.87,19.87,0,0,0,1431,407.49l18.84-47.74A19.85,19.85,0,0,0,1438.64,334Z" transform="translate(-631.2 -127)"/><path class="cls-13" d="M1358.35,390.1a37.5,37.5,0,1,1,52.5-19.33h0a37.5,37.5,0,0,1-48.65,21.11A38.53,38.53,0,0,1,1358.35,390.1Zm33.2-62.29a35.66,35.66,0,0,0-3.43-1.58,33.08,33.08,0,1,0,18.62,42.92h0a33.09,33.09,0,0,0-15.19-41.34Z" transform="translate(-631.2 -127)"/><path class="cls-16" d="M1401.26,353.2a4.74,4.74,0,0,0-1.74-6.48,4.64,4.64,0,0,0-5.54,1,4.66,4.66,0,0,0-2.23-5.18,4.75,4.75,0,0,0-6.36,2.15c-2.75,5.13,1.16,12.58,2.53,13.88a.48.48,0,0,0,.38.21C1390.14,359.21,1398.5,358.34,1401.26,353.2Z" transform="translate(-631.2 -127)"/><path class="cls-16" d="M1360.1,337a4.75,4.75,0,0,1,5.7-3.55,4.52,4.52,0,0,0,8.52,2.27,4.76,4.76,0,0,1,3.18,5.91c-1.5,5.63-9.44,8.4-11.33,8.42a.53.53,0,0,1-.42-.11C1364.12,348.94,1358.6,342.59,1360.1,337Z" transform="translate(-631.2 -127)"/><path class="cls-13" d="M1352.52,350.41c-.07.19-.17.36-.24.54a24.26,24.26,0,0,0,45.13,17.82c.07-.19.12-.38.19-.56Z" transform="translate(-631.2 -127)"/></g><g id="Layer_7" data-name="Layer 7"><rect class="cls-17" width="826" height="826"/></g></g></svg>