<svg xmlns="http://www.w3.org/2000/svg" viewBox="0 0 826 832.33"><defs><style>.cls-1{isolation:isolate;}.cls-2{fill:#ffbf9d;}.cls-3{fill:#ffe300;}.cls-4{fill:#1a2e35;}.cls-5{opacity:0.3;}.cls-6{opacity:0.6;}.cls-7{fill:#375a64;}.cls-8{fill:#f9ae40;}.cls-9{fill:#fddc17;}.cls-10{fill:#ffe7d9;}.cls-11{fill:#d87153;}.cls-12{fill:#fff;}.cls-13{opacity:0.5;}.cls-14{fill:#c19373;}.cls-15{fill:#c55a3e;}.cls-16{fill:#173682;}.cls-17{fill:#2845a3;}.cls-18{fill:#f5921e;}.cls-19{fill:#042066;mix-blend-mode:soft-light;}.cls-20{fill:#c8c8c8;}.cls-21{opacity:0.4;}.cls-22{fill:#ff9a6c;}.cls-23{fill:#f0d60f;}.cls-24{fill:#fafafa;}.cls-25{fill:none;}</style></defs><title>HIW2</title><g class="cls-1"><g id="Layer_8" data-name="Layer 8"><path class="cls-2" d="M786.61,818.86a15,15,0,0,0-14.1,12c-2.9,12-3.32,16.17-3.32,16.17s-12.74,11.45,0,14.52,17.42-14.1,17.42-14.1l2-28.61Z" transform="translate(-631.2 -127)"/><path class="cls-3" d="M914.19,599.5S954,465.82,958.06,460.06c6.69-9.52,71.13-38.17,71.13-38.17l17.28-35.26,107.12-17.12,26.53,34.17,74.6,54.64-5.2,189.11-2.77,132,14.12,164.81-338.82-.51,15.33-34.72,16.09-299.77Z" transform="translate(-631.2 -127)"/><path class="cls-4" d="M960.1,581.48a4,4,0,0,1-.13-1.08c-.05-.84-.1-1.86-.17-3.1-.12-2.69-.23-6.58-.32-11.4-.18-9.63-.19-22.94.23-37.63s1.19-28,1.92-37.59c.37-4.8.7-8.69,1-11.37.14-1.23.25-2.24.34-3.08a.55.55,0,1,1,.23,0c0,.84-.08,1.86-.13,3.1-.16,2.86-.36,6.71-.62,11.38-.52,9.61-1.17,22.89-1.59,37.57s-.54,28-.56,37.6c0,4.68,0,8.53,0,11.4,0,1.23,0,2.26,0,3.1A4,4,0,0,1,960.1,581.48Z" transform="translate(-631.2 -127)"/><g class="cls-5"><path d="M1036.84,543a6.67,6.67,0,0,1,1.25-4.18c2.54-3.58,8.39-5.17,12.65-3.14,5.68,2.72,8.5,9.23,9.64,15.42,1.25,6.78,1.06,13.76,2.34,20.53s4.38,13.68,10.31,17.18c7.36,4.35,17,2.38,24.75,6,11.51,5.42,14.17,20.38,14.75,33.08,1.09,24.07,0,48.17-1,72.23q-3.33,76.86-6.65,153.72L1098.84,931l-31.17,13.25-41.23-270.93Z" transform="translate(-631.2 -127)"/></g><path class="cls-4" d="M1045.73,521.13a2.62,2.62,0,0,1-.81.43,5.54,5.54,0,0,1-2.63.26,9.07,9.07,0,0,1-7.08-6.19,16.2,16.2,0,0,1-.63-6.68,70.62,70.62,0,0,1,1.25-7.5c1-5.24,2.18-11,3.38-17,2.44-12,4.7-22.94,6.4-30.81.84-3.79,1.54-6.92,2.07-9.31a22.27,22.27,0,0,1,.9-3.39,19.64,19.64,0,0,1-.47,3.47l-1.72,9.39c-1.49,7.91-3.63,18.83-6.07,30.88-1.23,6-2.4,11.73-3.47,17s-2.13,10-.88,13.74a8.72,8.72,0,0,0,6.38,6A7.65,7.65,0,0,0,1045.73,521.13Z" transform="translate(-631.2 -127)"/><path class="cls-4" d="M1056.75,470.84c0,.11-.89.1-2.36.56a10.91,10.91,0,0,0-5.23,3.69,9.28,9.28,0,0,0-1.62,8.9,9.68,9.68,0,0,0,18,1.43,9.25,9.25,0,0,0-.18-9,10.94,10.94,0,0,0-4.58-4.47c-1.39-.69-2.27-.82-2.24-.93s.22,0,.64,0a6.83,6.83,0,0,1,1.78.5,11.07,11.07,0,0,1,6.6,9,9.64,9.64,0,0,1-1.1,5.39,10.66,10.66,0,0,1-19.87-1.58,9.7,9.7,0,0,1-.23-5.5,11.09,11.09,0,0,1,7.94-7.84,7.2,7.2,0,0,1,1.84-.22C1056.53,470.77,1056.75,470.8,1056.75,470.84Z" transform="translate(-631.2 -127)"/><polygon points="462 482.02 266.29 446.62 174.95 466.65 379.37 503.46 462 482.02"/><g class="cls-6"><polygon points="462 482.02 266.29 446.62 174.95 466.65 379.37 503.46 462 482.02"/></g><path class="cls-7" d="M968.07,694.36c2.65-36.06,12.54-127.67,20-163.07,2.22-10.59,4.78-21.43,10.94-30.33s16.8-15.51,27.5-13.87c9.55,1.47,17.21,9.22,21.09,18.07a64.19,64.19,0,0,1,4.92,28.38c-1.84,43.76-5.62,92.78-5.59,133.34" transform="translate(-631.2 -127)"/><path class="cls-4" d="M1034.34,608.47c0,.17-2.78.9-7.26,2.3a145.91,145.91,0,0,0-33.27,15.09c-4,2.44-6.41,4.09-6.51,3.94s.5-.54,1.54-1.36,2.58-1.94,4.54-3.26A114.77,114.77,0,0,1,1026.86,610c2.28-.61,4.14-1,5.44-1.27A7,7,0,0,1,1034.34,608.47Z" transform="translate(-631.2 -127)"/><path class="cls-4" d="M1037.6,566.83c0,.18-2.95.83-7.63,2.28a103.11,103.11,0,0,0-33.71,17.72c-3.85,3-6.07,5.12-6.2,5s.45-.63,1.41-1.63,2.41-2.37,4.29-4a87.94,87.94,0,0,1,34-17.86,57.7,57.7,0,0,1,5.72-1.28A7.58,7.58,0,0,1,1037.6,566.83Z" transform="translate(-631.2 -127)"/><path class="cls-4" d="M1033.2,533.32c0,.19-2.33.3-6,1a51.8,51.8,0,0,0-25.68,12.79c-2.74,2.52-4.23,4.31-4.38,4.19s.26-.54.89-1.39a31.63,31.63,0,0,1,2.94-3.38,45.62,45.62,0,0,1,26.1-13,32.42,32.42,0,0,1,4.47-.31A4.71,4.71,0,0,1,1033.2,533.32Z" transform="translate(-631.2 -127)"/><path class="cls-8" d="M906.1,647a58.21,58.21,0,0,0-7-27.29,58.16,58.16,0,0,0,6.26-27.45c-.34-26.9-17.73-48.5-38.84-48.23s-38,22.29-37.62,49.19a58.33,58.33,0,0,0,6.95,27.29,58.22,58.22,0,0,0-6.26,27.45c.34,26.91,17.73,48.5,38.85,48.24S906.44,673.87,906.1,647Z" transform="translate(-631.2 -127)"/><rect class="cls-8" x="867.53" y="543.81" width="28.17" height="152.18" transform="translate(-638.95 -115.83) rotate(-0.72)"/><path class="cls-9" d="M932,646.64a58.05,58.05,0,0,0-7-27.28,58.23,58.23,0,0,0,6.26-27.46c-.34-26.9-17.73-48.5-38.84-48.23s-38,22.29-37.62,49.2a58.26,58.26,0,0,0,6.95,27.28,58.23,58.23,0,0,0-6.26,27.46c.34,26.9,17.73,48.5,38.85,48.23S932.33,673.55,932,646.64Z" transform="translate(-631.2 -127)"/><path class="cls-9" d="M853.77,559.89a3.25,3.25,0,1,1,3.2-3.29A3.24,3.24,0,0,1,853.77,559.89Z" transform="translate(-631.2 -127)"/><path class="cls-9" d="M847.58,584.31a3.25,3.25,0,1,1,3.2-3.29A3.24,3.24,0,0,1,847.58,584.31Z" transform="translate(-631.2 -127)"/><path class="cls-8" d="M914.74,583.46a3.25,3.25,0,1,1,3.21-3.29A3.25,3.25,0,0,1,914.74,583.46Z" transform="translate(-631.2 -127)"/><path class="cls-8" d="M900.83,628.44a3.25,3.25,0,1,1,3.21-3.29A3.26,3.26,0,0,1,900.83,628.44Z" transform="translate(-631.2 -127)"/><path class="cls-8" d="M901.51,681.79a3.25,3.25,0,1,1,3.2-3.29A3.24,3.24,0,0,1,901.51,681.79Z" transform="translate(-631.2 -127)"/><path class="cls-8" d="M898,658.79a3.25,3.25,0,1,1,3.2-3.29A3.24,3.24,0,0,1,898,658.79Z" transform="translate(-631.2 -127)"/><path class="cls-8" d="M888.94,677.06a3.25,3.25,0,1,1,3.21-3.29A3.25,3.25,0,0,1,888.94,677.06Z" transform="translate(-631.2 -127)"/><path class="cls-8" d="M887.56,567.25a3.25,3.25,0,1,1,3.21-3.29A3.25,3.25,0,0,1,887.56,567.25Z" transform="translate(-631.2 -127)"/><path class="cls-8" d="M881.68,625.43a3.25,3.25,0,1,1,3.21-3.29A3.24,3.24,0,0,1,881.68,625.43Z" transform="translate(-631.2 -127)"/><circle class="cls-8" cx="887.68" cy="577.3" r="3.25" transform="translate(-532.95 1156.03) rotate(-74.83)"/><path class="cls-8" d="M915.8,667.64a3.25,3.25,0,1,1,3.21-3.29A3.25,3.25,0,0,1,915.8,667.64Z" transform="translate(-631.2 -127)"/><path class="cls-8" d="M874.09,649.05a3.25,3.25,0,1,1,3.21-3.29A3.26,3.26,0,0,1,874.09,649.05Z" transform="translate(-631.2 -127)"/><path class="cls-8" d="M873.36,590.79a3.25,3.25,0,1,1,3.21-3.29A3.24,3.24,0,0,1,873.36,590.79Z" transform="translate(-631.2 -127)"/><path class="cls-8" d="M900.1,570.34a3.25,3.25,0,1,1,3.21-3.29A3.26,3.26,0,0,1,900.1,570.34Z" transform="translate(-631.2 -127)"/><path class="cls-9" d="M851.32,623.54a3.25,3.25,0,1,1,3.21-3.29A3.26,3.26,0,0,1,851.32,623.54Z" transform="translate(-631.2 -127)"/><path class="cls-9" d="M839.55,662.78a3.25,3.25,0,1,1,3.21-3.29A3.26,3.26,0,0,1,839.55,662.78Z" transform="translate(-631.2 -127)"/><path class="cls-9" d="M839.71,574.35a3.25,3.25,0,1,1,3.2-3.29A3.25,3.25,0,0,1,839.71,574.35Z" transform="translate(-631.2 -127)"/><path class="cls-9" d="M838.75,599.37a3.25,3.25,0,1,1,3.21-3.29A3.26,3.26,0,0,1,838.75,599.37Z" transform="translate(-631.2 -127)"/><path class="cls-9" d="M848.36,646.12a3.25,3.25,0,1,1,3.2-3.29A3.24,3.24,0,0,1,848.36,646.12Z" transform="translate(-631.2 -127)"/><path class="cls-9" d="M863.41,692.33a3.25,3.25,0,1,1,3.21-3.29A3.25,3.25,0,0,1,863.41,692.33Z" transform="translate(-631.2 -127)"/><path class="cls-9" d="M852,674.28a3.25,3.25,0,1,1,3.21-3.29A3.25,3.25,0,0,1,852,674.28Z" transform="translate(-631.2 -127)"/><path class="cls-9" d="M849.59,685.7a3.25,3.25,0,1,1,3.21-3.29A3.26,3.26,0,0,1,849.59,685.7Z" transform="translate(-631.2 -127)"/><path class="cls-9" d="M842.47,636.44a3.25,3.25,0,1,1,3.21-3.28A3.24,3.24,0,0,1,842.47,636.44Z" transform="translate(-631.2 -127)"/><rect class="cls-10" x="950.38" y="534.81" width="16.61" height="22.15" transform="matrix(-0.95, -0.32, 0.32, -0.95, 1060.42, 1243.44)"/><path class="cls-11" d="M931.15,738.53s-19.38,2.87-37.58-3.29-31.1-20-31.1-20S898.46,588,921,569.68c16.53-13.41,48.84-12.75,53.28,22.43C976.78,612,951.33,689.82,931.15,738.53Z" transform="translate(-631.2 -127)"/><path class="cls-12" d="M971.88,580.32s-8.34,3-24.07-2.3-20.52-12.8-20.52-12.8,7.53-17.91,11-19.65,35,8.93,36.72,12.44S973.65,575.08,971.88,580.32Z" transform="translate(-631.2 -127)"/><g class="cls-13"><path class="cls-14" d="M968.07,577.43a19.66,19.66,0,0,0,1.36-3.59c.35-1.26.61-2.53.85-3.81.49-2.59.82-5.19,1.05-7.8a.84.84,0,0,0-1.68-.14c-.22,2.57-.54,5.12-.9,7.67-.18,1.28-.4,2.54-.58,3.81a34.93,34.93,0,0,0-.32,3.82.11.11,0,0,0,.22,0Z" transform="translate(-631.2 -127)"/><path class="cls-14" d="M962.47,577.28a48.18,48.18,0,0,0,1.66-4.63c.43-1.47.75-3,1.08-4.47s.67-3,.94-4.51l.42-2.28a2.66,2.66,0,0,0-.24-2.35,1,1,0,0,0-1.14-.23,2.38,2.38,0,0,0-1,1.9c-.15.81-.3,1.62-.46,2.43-.28,1.51-.54,3-.8,4.55s-.56,3-.76,4.54-.32,3.25-.42,4.89a.38.38,0,0,0,.73.16Z" transform="translate(-631.2 -127)"/><path class="cls-14" d="M956.71,575.29a42.31,42.31,0,0,0,2.27-8.66c.29-1.4.58-2.81,1-4.19.33-1.2,1.16-3,.58-4.18A.49.49,0,0,0,960,558c-1.3.41-1.84,2.1-2.17,3.28-.42,1.49-.72,3-1,4.52a80.7,80.7,0,0,1-1.9,8.86.94.94,0,0,0,1.77.63Z" transform="translate(-631.2 -127)"/><path class="cls-14" d="M949.09,573.47a45.33,45.33,0,0,0,3.49-7.18c.51-1.28,1-2.56,1.57-3.83.78-1.82,1.82-3.68,2-5.66.12-1.08-1.2-1.31-1.79-.64-1.29,1.47-2,3.54-2.69,5.32-.54,1.31-1.06,2.62-1.55,3.95a37.44,37.44,0,0,0-1.91,7.74.47.47,0,0,0,.85.3Z" transform="translate(-631.2 -127)"/><path class="cls-14" d="M941.65,571.13c2.22-2.24,3.57-5.23,4.87-8.06.63-1.38,1.26-2.76,1.91-4.14s1.81-3,1.31-4.64a.53.53,0,0,0-.73-.37c-1.62.59-2.11,2.39-2.74,3.84s-1.21,2.8-1.8,4.2a51.35,51.35,0,0,0-3.33,8.82c-.07.28.26.61.51.35Z" transform="translate(-631.2 -127)"/><path class="cls-14" d="M935.91,568.15c.91-1.17,1.85-2.35,2.68-3.58s1.63-2.6,2.4-3.91,1.48-2.58,2.18-3.9a24.8,24.8,0,0,0,2-4.18c.39-1.26-1.37-2.28-2.13-1.08a37.31,37.31,0,0,0-2,4.08c-.64,1.33-1.3,2.65-2,4q-2.1,4-4.3,7.87a.66.66,0,0,0,1.09.74Z" transform="translate(-631.2 -127)"/><path class="cls-14" d="M931.71,564.8c.77-1.2,1.6-2.39,2.31-3.63s1.47-2.57,2.21-3.85,1.42-2.45,2.15-3.66a18.87,18.87,0,0,0,1.87-3.22.38.38,0,0,0-.43-.5c-1.31.3-2,1.42-2.65,2.52-.75,1.28-1.46,2.58-2.17,3.88s-1.43,2.59-2.14,3.9-1.34,2.75-2,4.14c-.22.49.54.86.83.42Z" transform="translate(-631.2 -127)"/></g><path class="cls-10" d="M915.18,534.51a12.75,12.75,0,0,0,4.53,4.58c2.32,1.24,3.55-.11,4.4-2.13a20.51,20.51,0,0,1,4-6.5c1.11-1.13,2.69-.8,4-.47a81.65,81.65,0,0,1,12.68,4.49c4.6,1.92,9.09,4,13.82,5.63,3.26,1.11,7.25,3,10.78,2.28,2.87-.59,5.85-5.29,4.74-8.16-1.18-3.07-4.29-3.91-7-5.07-3.71-1.56-7.36-3.27-11-4.91a177.92,177.92,0,0,0-22.49-8.74c-2.75-.81-5.58-1.1-8.15.43a22.25,22.25,0,0,0-6,6,41.22,41.22,0,0,0-4.36,7.53A5,5,0,0,0,915.18,534.51Z" transform="translate(-631.2 -127)"/><path class="cls-15" d="M960.21,626.26s-16,1.79-28.57-4.27a126.47,126.47,0,0,1-23.29-15.09s-3.28,9.7-16.23,43.16c-8.62,22.26-14.64,45.34-14.64,45.34s2.13,7.48,24.69,15.12S930.78,715,930.78,715s12.45-31.39,19.93-55.89S960.21,626.26,960.21,626.26Z" transform="translate(-631.2 -127)"/><path class="cls-16" d="M981,660.63a35.38,35.38,0,0,1-24.64-8c-8.65-7.26-13.57-18.64-14.61-33.83-3.09-44.91,32.5-47.88,32.86-47.9l.79,11.45c-2.47.21-24.44,3-22.2,35.66.83,12,4.37,20.64,10.54,25.82a23.9,23.9,0,0,0,16,5.33Z" transform="translate(-631.2 -127)"/><path class="cls-17" d="M938.64,592h103.63a9.25,9.25,0,0,1,9.25,9.25v32.4a4.25,4.25,0,0,1-4.25,4.25H933.64a4.25,4.25,0,0,1-4.25-4.25v-32.4A9.25,9.25,0,0,1,938.64,592Z" transform="translate(-186.25 1518.34) rotate(-93.94)"/><polygon class="cls-8" points="406.54 528.06 407.4 540.59 385.87 540.43 385.23 531.17 406.54 528.06"/><polygon class="cls-18" points="385.55 535.8 385.87 540.43 407.4 540.59 406.97 534.33 385.55 535.8"/><polygon class="cls-8" points="405.41 511.76 406.28 524.3 384.75 524.13 384.11 514.87 405.41 511.76"/><polygon class="cls-18" points="384.43 519.5 384.75 524.13 406.28 524.3 405.85 518.03 384.43 519.5"/><polygon class="cls-8" points="404.29 495.46 405.15 508 383.63 507.84 382.99 498.57 404.29 495.46"/><polygon class="cls-18" points="383.31 503.21 383.63 507.84 405.15 508 404.72 501.73 383.31 503.21"/><polygon class="cls-8" points="403.17 479.17 404.03 491.7 382.5 491.54 381.87 482.28 403.17 479.17"/><polygon class="cls-18" points="382.18 486.91 382.5 491.54 404.03 491.7 403.6 485.43 382.18 486.91"/><polygon class="cls-8" points="402.05 462.87 402.91 475.4 381.38 475.24 380.74 465.98 402.05 462.87"/><polygon class="cls-18" points="381.06 470.61 381.38 475.24 402.91 475.4 402.48 469.14 381.06 470.61"/><polygon class="cls-8" points="400.93 446.57 401.79 459.11 380.26 458.94 379.62 449.68 400.93 446.57"/><polygon class="cls-18" points="379.94 454.31 380.26 458.94 401.79 459.11 401.36 452.84 379.94 454.31"/><polygon class="cls-8" points="399.8 430.27 400.67 442.81 379.14 442.64 378.5 433.38 399.8 430.27"/><polygon class="cls-18" points="378.82 438.01 379.14 442.64 400.67 442.81 400.24 436.54 378.82 438.01"/><path class="cls-16" d="M1004.59,559.79,1012,667.72a7,7,0,0,1-6.47,7.43l5.05-.35a7,7,0,0,0,6.47-7.43l-7.43-107.93a7,7,0,0,0-7.43-6.47l-5.05.35A7,7,0,0,1,1004.59,559.79Z" transform="translate(-631.2 -127)"/><path class="cls-19" d="M964.4,570.52l1.37,19.94a14.92,14.92,0,0,1,13.85-15.91l24.08-1.65a6.84,6.84,0,0,1,7.3,6.36l-1.37-19.94a6.85,6.85,0,0,0-7.31-6.36l-24.07,1.66A14.9,14.9,0,0,0,964.4,570.52Z" transform="translate(-631.2 -127)"/><path class="cls-20" d="M806.15,593.65l-24.6,310.23,229.22,55.41s80-27.1,81-29S1093.2,609,1093.2,609l-82.63,21.44Z" transform="translate(-631.2 -127)"/><g class="cls-21"><path d="M806.15,593.65l-24.6,310.23,229.22,55.41s80-27.1,81-29S1093.2,609,1093.2,609l-82.63,21.44Z" transform="translate(-631.2 -127)"/></g><path class="cls-2" d="M1165.65,232.3l-12.78,181.05a56.43,56.43,0,0,1-56.3,52.47h0a56.44,56.44,0,0,1-56.33-60.14c1.13-17.23,2.16-31.34,2.16-31.34S998.56,367.52,998,323.7c-.31-25.31,4.06-82.75,7.8-126.75a57.47,57.47,0,0,1,57.29-52.58h26.47A81.09,81.09,0,0,1,1165.65,232.3Z" transform="translate(-631.2 -127)"/><path class="cls-22" d="M1042.4,374.34s27.62,1.62,57-16.87c0,0-14.11,31.88-57.84,27.93Z" transform="translate(-631.2 -127)"/><path class="cls-4" d="M1014.05,242.15c.77.82,5.51-2.69,12.25-2.67s11.67,3.39,12.4,2.56c.36-.36-.43-1.84-2.59-3.4a17.12,17.12,0,0,0-9.92-3.06,16.49,16.49,0,0,0-9.76,3.14C1014.36,240.31,1013.66,241.79,1014.05,242.15Z" transform="translate(-631.2 -127)"/><path class="cls-4" d="M1086.94,249.89a6.25,6.25,0,0,0,6,6.31,6,6,0,0,0,6.45-5.64,6.25,6.25,0,0,0-6-6.32A6,6,0,0,0,1086.94,249.89Z" transform="translate(-631.2 -127)"/><path class="cls-4" d="M1020.12,249.89a6.26,6.26,0,0,0,6,6.31,6,6,0,0,0,6.46-5.64,6.26,6.26,0,0,0-6-6.32A6,6,0,0,0,1020.12,249.89Z" transform="translate(-631.2 -127)"/><path class="cls-4" d="M1079.57,242.15c.78.82,5.52-2.69,12.25-2.67s11.67,3.39,12.4,2.56c.36-.36-.42-1.84-2.58-3.4a17.16,17.16,0,0,0-9.93-3.06,16.49,16.49,0,0,0-9.75,3.14C1079.9,240.31,1079.19,241.79,1079.57,242.15Z" transform="translate(-631.2 -127)"/><path class="cls-4" d="M1055.13,292.1c0-.39-4.16-1.11-10.94-2-1.72-.17-3.35-.52-3.64-1.69s.32-3.09,1.15-5.1l5.09-13.09c7.06-18.64,12.17-34,11.42-34.25s-7.09,14.61-14.15,33.25q-2.55,6.9-4.87,13.17c-.65,2-1.77,4.17-.9,6.75a4.34,4.34,0,0,0,2.83,2.52,11.88,11.88,0,0,0,2.92.4C1050.87,292.45,1055.1,292.48,1055.13,292.1Z" transform="translate(-631.2 -127)"/><path class="cls-4" d="M1075,296.76c-1.1-.07-1.11,7.24-7.37,12.43s-14,4.38-14.09,5.41c-.1.46,1.73,1.42,5,1.51a18.23,18.23,0,0,0,11.77-4.1,15.85,15.85,0,0,0,5.7-10.43C1076.26,298.52,1075.45,296.71,1075,296.76Z" transform="translate(-631.2 -127)"/><path class="cls-4" d="M1077.83,220.26c.67,1.84,7.39,1,15.29,1.92,7.92.79,14.29,3.11,15.34,1.46.47-.78-.64-2.5-3.22-4.28a26.76,26.76,0,0,0-23.33-2.57C1079,218,1077.55,219.4,1077.83,220.26Z" transform="translate(-631.2 -127)"/><path class="cls-4" d="M1015,222.87c1.19,1.53,5.83-.05,11.41-.13,5.57-.27,10.3,1,11.39-.57.47-.78-.27-2.31-2.34-3.76a16.53,16.53,0,0,0-18.36.57C1015.11,220.55,1014.46,222.13,1015,222.87Z" transform="translate(-631.2 -127)"/><path class="cls-2" d="M1150.88,265.19c.75-.32,30.11-8.9,29.15,21.06s-30.84,22.82-30.86,22S1150.88,265.19,1150.88,265.19Z" transform="translate(-631.2 -127)"/><path class="cls-22" d="M1158.68,297.15c.14-.09.51.38,1.38.81a5.25,5.25,0,0,0,3.9.21c3.2-1.06,6-6,6.35-11.4a17.42,17.42,0,0,0-1.22-7.52c-.85-2.22-2.22-3.79-3.8-4.13a2.66,2.66,0,0,0-3.13,1.33c-.43.83-.26,1.43-.42,1.48s-.62-.52-.34-1.75a3.27,3.27,0,0,1,1.24-1.84,3.92,3.92,0,0,1,2.91-.67c2.3.23,4.31,2.42,5.3,4.82a17.63,17.63,0,0,1,1.54,8.4c-.38,6-3.65,11.59-8,12.7a5.58,5.58,0,0,1-4.75-.95C1158.72,297.87,1158.58,297.2,1158.68,297.15Z" transform="translate(-631.2 -127)"/><path class="cls-4" d="M1167.55,264.18c-4.57-1.11-12.48,3.11-14.42,7.39s-2.38,9.12-4.32,13.41-6.34,8.15-10.91,7.07c-3.16-.75-5.41-3.71-6.25-6.84s-.49-6.45-.09-9.66c1.77-14,4.71-27.87,5.27-42s-1.44-28.73-8.84-40.74-21-20.83-35-19.7c-9.31.75-17.85,5.61-27.1,6.9a36.57,36.57,0,0,1-30.41-10.15,69.71,69.71,0,0,0-5.68-4.08c0-.73.68-7,3.15-9.27,18.35-17,51.42-21.71,75.66-15.61s47,23.22,57.4,45.94,7.33,54.31,1.59,77.3" transform="translate(-631.2 -127)"/><path class="cls-4" d="M1001,189c3.92,9.1,13.94,14.4,23.8,15.4s19.71-1.55,29.25-4.26,35.11-6.94,45-6.64c1.48,0,3.27,0,4.05-1.24,1-1.66-.62-3.68-2.17-4.89-13.06-10.23-44.63-16.5-61.21-17.2s-34,6.43-43,20.38" transform="translate(-631.2 -127)"/><path class="cls-23" d="M1005.33,190.19s115-37,164.7,62.48c0,0,7.44-24.9,7.44-38.24,0-8.91-5.33-62-59.94-78.68C1117.53,135.75,1035.25,104.35,1005.33,190.19Z" transform="translate(-631.2 -127)"/><g class="cls-21"><path d="M1005.33,190.19a53.42,53.42,0,0,1,36.56-16.6c33.91-1.5,97.39,17.57,128.14,79.08,0,0,7.44-24.9,7.44-38.24,0-8.91-5.33-62-59.94-78.68C1117.53,135.75,1035.25,104.35,1005.33,190.19Z" transform="translate(-631.2 -127)"/></g><path class="cls-3" d="M1165.23,241c-17-26.08-40.55-47.64-67-64.15S1028.12,144,998,136c-9-2.4-18.47-4.49-27.69-2.9s-18.24,7.73-20.53,16.8c-2.86,11.35,17.29,28.87,26.76,35.76s28.78,17,28.78,17-.26-21.06,33.45-25.4C1084.63,171.38,1165.23,241,1165.23,241Z" transform="translate(-631.2 -127)"/><path class="cls-24" d="M1070.94,155.11s-16.56-9.16-33.2-11.3a42.91,42.91,0,0,1,9-5.41c8.51,1.69,17.14,3.85,25.88,8.7Z" transform="translate(-631.2 -127)"/><path class="cls-3" d="M1215.38,453.74s-31.43,35.92-28,85.91c.48,6.93.82,16.6,1.68,23.5,5.3,42.88,13.49,82.68,13.49,82.68h3l109.59-27.06s-16.51-95.14-20.3-107.76c-12.14-40.44-53.8-62.68-53.8-62.68Z" transform="translate(-631.2 -127)"/><path class="cls-4" d="M1091.81,930.33s0-.54,0-1.61,0-2.69,0-4.76c0-4.22,0-10.39,0-18.35,0-16,.07-39.16.12-68,.2-57.71.49-138,.8-228.61l.71.55-41.69,10.82L1010.72,631l.42-.55c.55,45.41.4,88.26.19,127s-.44,73.3-.61,102.22-.11,52.15,0,68.16c0,8,.06,14.17.08,18.4V951c0,1.07,0,1.62,0,1.62s0-.55-.07-1.62-.06-2.69-.11-4.77c-.06-4.23-.15-10.42-.27-18.4-.2-16-.32-39.25-.31-68.16s.23-63.51.37-102.22.26-81.55-.32-126.95V630l.42-.11,40.93-10.63,41.69-10.81.71-.18V609c-.47,90.58-.88,170.9-1.18,228.6-.19,28.82-.35,52-.46,68-.08,8-.14,14.13-.18,18.35,0,2.07-.06,3.66-.07,4.76S1091.81,930.33,1091.81,930.33Z" transform="translate(-631.2 -127)"/><path class="cls-3" d="M1041.06,389.14s-4.38,41.7,9.69,48.19c15.83,7.3,31.59.17,41.29-6,25.85-16.5,64.28-62.32,64.28-62.32l26,33.83s-65.58,78.82-78.76,78.31c-8.59-.34-22-8.76-30.33-14.58a57.27,57.27,0,0,1-12.09-11.43l-11.34-14.43c-14.17,7-25.63,15.94-33.56,27.44,0,0-3.79-29.2,3-42.46s20.34-36.08,20.34-36.08Z" transform="translate(-631.2 -127)"/><path class="cls-4" d="M1018.37,426.82a4.4,4.4,0,0,1-.26.71c-.22.52-.5,1.2-.85,2.05a46.75,46.75,0,0,0-1.94,8.27c-1.09,7.31-1.37,18.11,0,31.26l-.77-.15a57.78,57.78,0,0,1,14-16,106,106,0,0,1,20.79-13.18l.36-.17.27.31c4.57,5.32,9.4,10.86,14.52,16.48s10.58,11.25,17.12,15.79a42.79,42.79,0,0,0,9.74,5.16,31.27,31.27,0,0,0,5.2,1.4,22.1,22.1,0,0,0,5.26.2c7.06-.65,13.06-4.69,18-8.95l0,0,44.9-47.87,13-13.74,3.51-3.63c.37-.38.67-.68.92-.92s.32-.3.33-.29a1.66,1.66,0,0,1-.27.35l-.85,1q-1.21,1.37-3.38,3.75l-12.79,14c-11,11.93-26.54,28.66-44.6,48.15v0l0,0a48.29,48.29,0,0,1-8.37,6A26.24,26.24,0,0,1,1102,480a23.4,23.4,0,0,1-5.54-.2,32.61,32.61,0,0,1-5.4-1.45,44.06,44.06,0,0,1-10-5.29c-6.65-4.63-12.19-10.35-17.29-16s-10-11.19-14.51-16.54l.62.14a105.69,105.69,0,0,0-20.62,13,57.33,57.33,0,0,0-13.94,15.67l-.64,1.13-.13-1.28c-1.29-13.25-.88-24.08.35-31.43a42.39,42.39,0,0,1,2.17-8.29c.4-.89.74-1.56,1-2A3.44,3.44,0,0,1,1018.37,426.82Z" transform="translate(-631.2 -127)"/><g class="cls-5"><path d="M1020,462c-1,1.65-.13,5.5,1.6,6.34a5.28,5.28,0,0,0,5.4-1,20.22,20.22,0,0,0,3.65-4.46,47.75,47.75,0,0,1,9.26-9.94c3.5-2.82,8.31-5.21,12.32-3.2,2.67,1.34,4.12,4.23,5.43,6.91,5.43,11.14,12,22.48,22.63,28.83s24.35,6.65,36.1,2.49,21.72-12.35,29.77-21.85,14.36-20.34,20.6-31.13c4.9-8.48,9.89-17.23,11.41-26.91-1.36.76-4.51,5.63-5.87,6.4,0,0-50.59,55.72-55.35,58.58s-17.86,22.13-55-19.49l-12.28-13.32S1026.24,451.57,1020,462Z" transform="translate(-631.2 -127)"/></g><rect class="cls-12" x="1098.28" y="577.78" width="56.28" height="16.99" transform="translate(-529.34 -290.93) rotate(8.72)"/><path class="cls-2" d="M1306,620.88l-86.91,21,10,81.91L1062.84,848.63c-6.66.93-13.46,2-17.24,3-9.1,2.27-25.15,25.08-29.7,27.36l-32.4,25s-2.84,11.37,11.94,9.1,31.26-13.64,33-13.64,6.88,3.46,4.43,10.8c-2.17,6.53-11.08,28.9-11.08,28.9l-11,20.19s47.57,1.56,60.88-16.09c9-12,36.84-46,36.84-46s195.7-96.28,207.45-116.43C1331.89,753.44,1306,620.88,1306,620.88Z" transform="translate(-631.2 -127)"/><path class="cls-22" d="M1266,759.06c-.24,0,.48-3.48-.39-8.95a31.15,31.15,0,0,0-29.41-26.61c-5.53-.32-8.9.74-8.94.5a8.31,8.31,0,0,1,2.33-.71,28,28,0,0,1,6.65-.59,30.92,30.92,0,0,1,30.16,27.3,27.2,27.2,0,0,1,.08,6.66A8,8,0,0,1,1266,759.06Z" transform="translate(-631.2 -127)"/><path class="cls-22" d="M1049.86,928.76c.14,0-.26,2.14-1.14,5.48a58,58,0,0,1-4.81,12.66,25.4,25.4,0,0,1-9.15,10,14.06,14.06,0,0,1-3.85,1.56c-1,.22-1.5.23-1.51.16s2.1-.54,4.94-2.4a27.32,27.32,0,0,0,8.58-9.86,76.3,76.3,0,0,0,5-12.35C1049,930.74,1049.7,928.72,1049.86,928.76Z" transform="translate(-631.2 -127)"/><path class="cls-22" d="M1072.91,921.19c.14,0-.44,2.09-1.68,5.28a102.33,102.33,0,0,1-5.68,12.12,103.48,103.48,0,0,1-7.2,11.28c-2,2.75-3.45,4.33-3.57,4.24s1.06-1.84,2.91-4.7,4.36-6.83,6.87-11.37,4.52-8.78,5.94-11.88S1072.75,921.13,1072.91,921.19Z" transform="translate(-631.2 -127)"/><path class="cls-4" d="M1072.28,779.47a13,13,0,0,1,.39,2.76c.19,1.78.34,4.37.43,7.58a149.25,149.25,0,0,1-7.16,49.4c-1,3-1.88,5.49-2.57,7.15a13.7,13.7,0,0,1-1.15,2.54,12.22,12.22,0,0,1,.74-2.69c.56-1.7,1.32-4.17,2.22-7.23a176.33,176.33,0,0,0,7.12-49.16c0-3.2,0-5.78-.07-7.57A13.1,13.1,0,0,1,1072.28,779.47Z" transform="translate(-631.2 -127)"/><path class="cls-4" d="M1025.23,805.53c.16,0,1.15,2.59,2.75,6.84s3.83,10.11,6.45,16.52,5.14,12.15,7,16.3,3,6.72,2.83,6.8-1.52-2.39-3.55-6.46-4.67-9.79-7.31-16.22-4.75-12.35-6.16-16.68S1025.09,805.58,1025.23,805.53Z" transform="translate(-631.2 -127)"/><path class="cls-4" d="M1012.64,861.72a6.84,6.84,0,0,1-1.37.4l-4,1c-1.73.41-3.85.88-6.34,1.3s-5.3,1-8.46,1.41-6.6.94-10.32,1.25-7.71.61-11.91.86a226.61,226.61,0,0,1-54.43-4.15c-4.12-.88-8-1.67-11.64-2.66s-7-1.87-10-2.8-5.75-1.87-8.14-2.68S881.6,854,880,853.35l-3.79-1.54a7.12,7.12,0,0,1-1.29-.6,6.72,6.72,0,0,1,1.37.39l3.86,1.34c1.67.61,3.71,1.33,6.12,2.07s5.11,1.69,8.17,2.5,6.38,1.83,10,2.66,7.52,1.7,11.61,2.55a239.23,239.23,0,0,0,54.2,4.13c4.18-.22,8.16-.37,11.86-.75s7.16-.71,10.3-1.11,6-.86,8.46-1.24,4.62-.76,6.36-1.11l4-.74A6.24,6.24,0,0,1,1012.64,861.72Z" transform="translate(-631.2 -127)"/><path class="cls-4" d="M1004.37,824c-.15.27-4.77-2-10.31-5s-9.92-5.68-9.77-6,4.76,2,10.31,5S1004.52,823.7,1004.37,824Z" transform="translate(-631.2 -127)"/><path class="cls-4" d="M1315.17,618.77a2,2,0,0,1-.53.18l-1.6.43-6.23,1.59-23.34,5.77-80.75,19.62-.57.13-.09-.58c-2.29-14.91-5.41-31-8.42-47.75-2-11.17-3.7-22.14-4.86-32.79s-1.71-21-1.85-30.83a164.6,164.6,0,0,1,1.63-27.91,80.63,80.63,0,0,1,7.11-23.28,58.73,58.73,0,0,1,12-16.13,47.23,47.23,0,0,1,12.53-8.54,40.52,40.52,0,0,1,9.15-2.88c1.08-.16,1.92-.25,2.47-.31a4.53,4.53,0,0,1,.85-.06,8.17,8.17,0,0,1-.83.17l-2.45.42a43.42,43.42,0,0,0-9,3.05,47.92,47.92,0,0,0-12.28,8.61,58.39,58.39,0,0,0-11.69,16,80.25,80.25,0,0,0-6.91,23.08,166.92,166.92,0,0,0-1.51,27.75c.17,9.81.74,20.11,1.91,30.72s2.89,21.55,4.87,32.71c3,16.73,6.11,32.85,8.38,47.79l-.66-.44,80.84-19.23,23.42-5.46,6.26-1.42,1.62-.34A4,4,0,0,1,1315.17,618.77Z" transform="translate(-631.2 -127)"/></g><g id="Layer_7" data-name="Layer 7"><rect class="cls-25" width="826" height="826"/></g></g></svg>