<svg xmlns="http://www.w3.org/2000/svg" xmlns:xlink="http://www.w3.org/1999/xlink" viewBox="0 0 826 826"><defs><style>.cls-1{fill:none;}.cls-2{fill:#fd9b55;}.cls-3{fill:#1d2769;}.cls-4{fill:#2f4dab;}.cls-5{clip-path:url(#clip-path);}.cls-6{fill:#c1c9e7;}.cls-7{fill:#fff;}.cls-8{fill:#d37c3a;}.cls-9{fill:#2b459c;}.cls-10{fill:#ffe300;}.cls-11{fill:#a38e12;}.cls-12{fill:#005dd6;}.cls-13{fill:#fda622;}.cls-14{fill:#fdc269;}.cls-15{fill:#fc6b3d;}.cls-16{fill:#fdcb7f;}</style><clipPath id="clip-path" transform="translate(-631.2 -127)"><rect class="cls-1" x="1021.48" y="365.33" width="90.03" height="180.61" rx="4.49" transform="translate(2177.36 788.8) rotate(173.56)"/></clipPath></defs><title>HIW3</title><g id="Layer_6" data-name="Layer 6"><path class="cls-2" d="M1020.33,414.14c21-18.5,62.78,101.29,62.54,110.33-.94,36.23-7.38,73.75-25.68,84.4-16.87.25-38.27-3.64-54-8.78-.84-14.07-6.78-64.19-6.49-85.67C997,494.63,1016.26,417.73,1020.33,414.14Z" transform="translate(-631.2 -127)"/><path class="cls-2" d="M953.66,768.55c16-61.61,37.76-130.93,50.27-172.12,22.71-6.71,35.47-1.93,54.75,7.16-5.32,48.86-16.46,154.82-23.16,218.93A260.82,260.82,0,0,1,953.66,768.55Z" transform="translate(-631.2 -127)"/><rect class="cls-3" x="1015.56" y="356.93" width="103.61" height="212.79" rx="12.36" transform="translate(1548.75 677.05) rotate(173.56)"/><path class="cls-4" d="M1041,567.92l75.41-8.51a13.87,13.87,0,0,0,12.22-15.34l-20.75-183.89A13.86,13.86,0,0,0,1092.53,348l-75.41,8.51a13.86,13.86,0,0,0-12.22,15.33l20.75,183.89A13.88,13.88,0,0,0,1041,567.92Z" transform="translate(-631.2 -127)"/><path class="cls-3" d="M1045.44,364.2l13-1.47a1.73,1.73,0,0,0,1.52-1.9h0a1.72,1.72,0,0,0-1.91-1.52l-13,1.46a1.72,1.72,0,0,0-1.51,1.91h0A1.73,1.73,0,0,0,1045.44,364.2Z" transform="translate(-631.2 -127)"/><path class="cls-3" d="M1064.74,360.29a1.73,1.73,0,1,0,1.52-1.91A1.72,1.72,0,0,0,1064.74,360.29Z" transform="translate(-631.2 -127)"/><path class="cls-3" d="M1072.19,553.33a5.3,5.3,0,1,0,4.67-5.86A5.3,5.3,0,0,0,1072.19,553.33Z" transform="translate(-631.2 -127)"/><g class="cls-5"><rect class="cls-6" x="1015.29" y="364.52" width="103.01" height="183.31" transform="translate(-676.1 -2.93) rotate(-6.52)"/><rect class="cls-7" x="1024.47" y="371.27" width="80.6" height="153.98" transform="translate(-675.21 -3.22) rotate(-6.52)"/></g><path class="cls-2" d="M1041.27,596.67c6.42,1,24.77-29.32,12.73-64.42,16.41-14.14,24.73-53.92,11.76-59.17-9-3.64-55.38,70.25-55,77.75C1011.4,564.58,1041.48,587.75,1041.27,596.67Z" transform="translate(-631.2 -127)"/><path class="cls-8" d="M1053.91,532.45a76.14,76.14,0,0,1,4.91,17.43,53.59,53.59,0,0,1-.12,18.39,41.77,41.77,0,0,1-7.39,17,47.61,47.61,0,0,1-13.47,12.21,84,84,0,0,0,11-13.9,49.27,49.27,0,0,0,6.1-16,70.46,70.46,0,0,0,.93-17.33C1055.49,544.33,1054.66,538.44,1053.91,532.45Z" transform="translate(-631.2 -127)"/><path class="cls-2" d="M1120.92,589c-17.28-17.86-35-35.29-40.22-30.24-7,6.75,10.38,57.3,40.47,77.94C1132.52,644.53,1157.88,592.25,1120.92,589Z" transform="translate(-631.2 -127)"/><path class="cls-2" d="M1120.83,472.46c-23.09,66.48-3.67,154.31,1.09,157.71,19.09,13.63,66.4,19.35,71.06,12.69,17-24.31,25-66.34,10.35-90-4.93-8-51.52-17.74-61.84-15.74-4.41-18.5-2.87-47.2-.74-59.15C1145.47,451.44,1127.27,453.93,1120.83,472.46Z" transform="translate(-631.2 -127)"/><path class="cls-9" d="M1069.33,623.52c-21.46-14-64.84-27.12-83.95-17-1.11,2.13-.37,10.59.88,12.54l78,21.24C1066.56,636.21,1069.72,629.09,1069.33,623.52Z" transform="translate(-631.2 -127)"/><path class="cls-10" d="M1037.89,871.39c8.3-82.59,23.24-174.83,26.37-231.14-23.87-14.48-46.76-21.28-78-21.24C966,679.7,923.69,806.13,901.64,886.08,949.79,889.3,996.1,884.28,1037.89,871.39Z" transform="translate(-631.2 -127)"/><path class="cls-11" d="M1064.26,640.25c-2.93-1.78-5.84-3.43-8.76-5-8.78,46.92-23,96.92-42.68,147.6a859.65,859.65,0,0,1-47.71,102.6,353.8,353.8,0,0,0,72.78-14.08C1046.19,788.8,1061.13,696.56,1064.26,640.25Z" transform="translate(-631.2 -127)"/><path class="cls-2" d="M1117.78,620s15.9,70.31,16,81c15.82,3.56,42.88-8.88,49.36-8.37,0,0,10.12-57.93,15.59-75Z" transform="translate(-631.2 -127)"/><path class="cls-9" d="M1194.64,655.59c-23.37-7.8-66.26-9-80.61,5.6-.39,2.33,2.71,10.24,4.4,11.78l76.45,0C1195.79,668.47,1196.6,660.83,1194.64,655.59Z" transform="translate(-631.2 -127)"/><path class="cls-10" d="M1237.54,901.12c-16.25-81.24-29.29-173.45-42.66-228.18-25.68-7.64-48.28-8.17-76.45,0-.86,63.41-2.64,195.49.45,277.79C1163.23,941.27,1203.56,924.37,1237.54,901.12Z" transform="translate(-631.2 -127)"/><path class="cls-11" d="M1194.88,672.94c-3.15-.94-6.25-1.76-9.33-2.48a868.61,868.61,0,0,1,3.94,152.45A877.42,877.42,0,0,1,1176,933.6a312.18,312.18,0,0,0,61.59-32.48C1221.29,819.88,1208.25,727.67,1194.88,672.94Z" transform="translate(-631.2 -127)"/><g id="Confetti"><path class="cls-12" d="M1286.37,580.15c-5.78-20.5-32.43-18.51-32.43-18.51l.74,14.26c15.4-2.66,25,15.39,25,15.39Z" transform="translate(-631.2 -127)"/><path class="cls-12" d="M1012.6,271.52c-14.39,1.53-16.1,19.59-16.1,19.59l9.62,1.14c0-10.61,13.16-14.95,13.16-14.95Z" transform="translate(-631.2 -127)"/><path class="cls-12" d="M1158.16,150.37c8.77,22.35,38.44,17.15,38.44,17.15l-2.41-15.91c-17,4.7-29.73-14.49-29.73-14.49Z" transform="translate(-631.2 -127)"/><path class="cls-12" d="M823.61,528c-14.38,1.53-16.1,19.59-16.1,19.59l9.63,1.14c0-10.61,13.16-15,13.16-15Z" transform="translate(-631.2 -127)"/><path class="cls-12" d="M882.87,221.79c2.09-14.31-15-20.45-15-20.45l-3.49,9c10.28,2.62,11.21,16.46,11.21,16.46Z" transform="translate(-631.2 -127)"/><path class="cls-12" d="M763.31,332.45c-2.59,22.44,27.14,27.87,27.14,27.87l5.36-14.68C778,344,775.4,323,775.4,323Z" transform="translate(-631.2 -127)"/><path class="cls-12" d="M1343.45,333.16c14.44.82,19.06-16.72,19.06-16.72l-9.32-2.68c-1.7,10.47-15.4,12.62-15.4,12.62Z" transform="translate(-631.2 -127)"/></g><g id="Money"><path class="cls-13" d="M1093.55,425.73a33.19,33.19,0,0,0-25.64-32.31v-.87h-7.54a33.18,33.18,0,1,0,0,66.36h7.54V458A33.19,33.19,0,0,0,1093.55,425.73Z" transform="translate(-631.2 -127)"/><path class="cls-14" d="M1091.72,414.87a30,30,0,0,0-1.21-3h-60.28c-.45,1-.85,2-1.21,3Z" transform="translate(-631.2 -127)"/><path class="cls-14" d="M1093.51,427.21c0-.49,0-1,0-1.48a33.09,33.09,0,0,0-.88-7.57h-64.6a33.09,33.09,0,0,0-.88,7.57c0,.49,0,1,0,1.48Z" transform="translate(-631.2 -127)"/><path class="cls-14" d="M1086.09,446.66a33.27,33.27,0,0,0,4.32-6.85h-60.08a33.32,33.32,0,0,0,4.33,6.85Z" transform="translate(-631.2 -127)"/><path class="cls-14" d="M1091.44,437.34a33.12,33.12,0,0,0,1.25-4.11h-64.64a34.88,34.88,0,0,0,1.24,4.11Z" transform="translate(-631.2 -127)"/><circle class="cls-14" cx="436.71" cy="298.73" r="33.18"/><circle class="cls-13" cx="1067.91" cy="425.73" r="27.73" transform="translate(-170.75 1274.77) rotate(-79.84)"/><path class="cls-15" d="M1073.11,453a27.07,27.07,0,0,1-5.21.5,27.73,27.73,0,0,1,0-55.46,27.07,27.07,0,0,1,5.21.5,27.72,27.72,0,0,0,0,54.46Z" transform="translate(-631.2 -127)"/><path class="cls-16" d="M1073.24,435l.08,3.39-3.48.4-.09-3.51a36.94,36.94,0,0,1-4.78-.14l-.1-3.55c3.93-.36,5.72-.54,7.07-.7,2.47-.29,3.12-.71,2.93-2.37s-.82-1.85-2.35-2.14l-4.44-1c-3.37-.81-4.79-2.62-5.16-5.81-.56-4.8,1.44-6.17,6.57-6.84l0-2.86,3.48-.4,0,3a22,22,0,0,1,4.13.25l.1,3.29c-1.83.15-4.43.42-6.72.69s-3.09.49-2.87,2.34c.18,1.5.85,1.84,2.57,2.17l4.18.94c3.56.83,4.89,2.67,5.26,5.84.55,4.7-1.2,6.33-6.39,7.07" transform="translate(-631.2 -127)"/><path class="cls-13" d="M950.63,388.86c-4.71-2.75-12.72-2.77-20.73.44s-13.8,8.74-15.31,14l-1.77.71,1.91,4.77c2.55,6.38,13.48,8,24.41,3.63s17.72-13.08,15.17-19.46l-1.91-4.77Z" transform="translate(-631.2 -127)"/><path class="cls-14" d="M934.67,387.77l9,22.44a30.43,30.43,0,0,0,5.55-4l-7.74-19.34A30.85,30.85,0,0,0,934.67,387.77Z" transform="translate(-631.2 -127)"/><path class="cls-14" d="M916.66,399.1l6.13,15.32a25.5,25.5,0,0,0,9.31,0l-8.68-21.71A25.44,25.44,0,0,0,916.66,399.1Z" transform="translate(-631.2 -127)"/><path class="cls-14" d="M929.9,389.3a34.67,34.67,0,0,0-3.69,1.72l9.07,22.67a35,35,0,0,0,3.86-1.3c.94-.37,1.85-.78,2.72-1.22l-9.15-22.87C931.78,388.59,930.84,388.92,929.9,389.3Z" transform="translate(-631.2 -127)"/><path class="cls-14" d="M943.65,386.92l7.09,17.72a19.85,19.85,0,0,0,2.52-3.44l-5.41-13.53A19.35,19.35,0,0,0,943.65,386.92Z" transform="translate(-631.2 -127)"/><ellipse class="cls-14" cx="932.61" cy="396.07" rx="21.31" ry="12.44" transform="translate(-711.6 247.74) rotate(-21.8)"/><path class="cls-13" d="M936,404.62c-9.89,4-18.59,2.21-20.21-1.83s3.48-11.3,13.37-15.26,18.59-2.21,20.21,1.83S945.92,400.66,936,404.62Z" transform="translate(-631.2 -127)"/><path class="cls-15" d="M949.4,389.36c1.61,4-3.48,11.3-13.37,15.26s-18.59,2.21-20.21-1.83a5.58,5.58,0,0,1,.2-4.05c3,2.86,10.61,3.68,19.12.27,7.09-2.84,11.72-7.38,13.17-11.21A4.61,4.61,0,0,1,949.4,389.36Z" transform="translate(-631.2 -127)"/><path class="cls-13" d="M1070.73,286.88l1.8,6.78c.7,2.64,11.08,2.18,23.19-1s21.35-8,20.65-10.6l-1.8-6.78Z" transform="translate(-631.2 -127)"/><path class="cls-14" d="M1092.22,281.18l3.06,11.56.44-.11c2.19-.59,4.29-1.22,6.26-1.88l-3-11.36Z" transform="translate(-631.2 -127)"/><path class="cls-14" d="M1078.46,284.83l2.77,10.42c1.33-.1,2.77-.26,4.31-.49l-2.93-11Z" transform="translate(-631.2 -127)"/><path class="cls-14" d="M1083.91,283.38l3,11.17q2-.35,4.23-.81l-3-11.46Z" transform="translate(-631.2 -127)"/><path class="cls-14" d="M1100.26,279l3,11.27c1.53-.54,3-1.1,4.28-1.66l-2.86-10.78Z" transform="translate(-631.2 -127)"/><ellipse class="cls-14" cx="1092.65" cy="281.06" rx="22.68" ry="4.94" transform="translate(-666.74 162.68) rotate(-14.86)"/><path class="cls-13" d="M1093.3,283.51c-9.77,2.59-16.57,2.92-19.36,2.52,2.22-1.73,8.29-4.82,18.06-7.41s16.57-2.92,19.35-2.52C1109.14,277.83,1103.07,280.91,1093.3,283.51Z" transform="translate(-631.2 -127)"/><path class="cls-15" d="M1111.18,276.23c-2.35,1.76-8.35,4.75-17.88,7.28s-16.24,2.9-19.15,2.55c5.22-1,11.47-2.44,18.67-4.35S1106.15,277.93,1111.18,276.23Z" transform="translate(-631.2 -127)"/><path class="cls-13" d="M1167.17,409.32l.42,4.52c.17,1.76,6.84,2.58,14.91,1.82s14.48-2.8,14.32-4.56l-.42-4.52Z" transform="translate(-631.2 -127)"/><path class="cls-14" d="M1181.49,408l.73,7.7.28,0c1.47-.14,2.88-.32,4.2-.53l-.71-7.57Z" transform="translate(-631.2 -127)"/><path class="cls-14" d="M1172.32,408.84l.65,6.94c.87.08,1.8.13,2.81.15l-.69-7.35Z" transform="translate(-631.2 -127)"/><path class="cls-14" d="M1176,408.5l.69,7.44q1.33,0,2.79-.06l-.71-7.64Z" transform="translate(-631.2 -127)"/><path class="cls-14" d="M1186.86,407.48l.7,7.5c1-.18,2-.38,2.91-.59l-.67-7.19Z" transform="translate(-631.2 -127)"/><path class="cls-14" d="M1196.4,406.58c.16,1.76-6.25,3.8-14.32,4.56s-14.75-.06-14.91-1.82,6.24-3.8,14.31-4.55S1196.23,404.82,1196.4,406.58Z" transform="translate(-631.2 -127)"/><path class="cls-13" d="M1181.93,409.58c-6.51.61-10.89.1-12.62-.46,1.6-.87,5.81-2.19,12.32-2.8s10.89-.09,12.62.46C1192.65,407.65,1188.45,409,1181.93,409.58Z" transform="translate(-631.2 -127)"/><path class="cls-15" d="M1194.13,406.85c-1.69.87-5.84,2.14-12.2,2.73s-10.67.12-12.49-.42c3.44-.09,7.59-.33,12.38-.78S1190.74,407.4,1194.13,406.85Z" transform="translate(-631.2 -127)"/></g><path class="cls-12" d="M1443.22,444.3c-12.7,1.35-14.22,17.3-14.22,17.3l8.5,1c0-9.37,11.63-13.21,11.63-13.21Z" transform="translate(-631.2 -127)"/><path class="cls-12" d="M1439.33,186.89c12.76.73,16.84-14.77,16.84-14.77l-8.23-2.37c-1.51,9.25-13.61,11.15-13.61,11.15Z" transform="translate(-631.2 -127)"/><path class="cls-12" d="M654.61,142.75c-12.7,1.35-14.22,17.3-14.22,17.3l8.5,1c0-9.38,11.63-13.21,11.63-13.21Z" transform="translate(-631.2 -127)"/><path class="cls-12" d="M649,395c-17.57,9.47-6.49,33.76-6.49,33.76l13.35-3.54C648,411.47,661.89,399,661.89,399Z" transform="translate(-631.2 -127)"/></g><g id="Layer_7" data-name="Layer 7"><rect class="cls-1" width="826" height="826"/></g></svg>